# xmcd CD database file
#
# Track frame offsets:
#	150
#	15307
#	30260
#	45938
#	66787
#	81878
#	100173
#	116426
#	134522
#	150440
#
# Disc length: 2250 seconds
#
# Revision: 0
# Processed by: cddbd v1.4PL0 Copyright (c) Steve Scherf et al.
# Submitted via: Feurio! 1.62.5ß - http://www.feurio.com
#
DISCID=6808c80a
DTITLE=Waymore Clayton - Solitary Man
DYEAR=1900
DGENRE=Country
TTITLE0=Nowhere Road
TTITLE1=I May Be A Fool
TTITLE2=Solitary Man
TTITLE3=Lonesome On'ry And Mean
TTITLE4=You Left A Long Long Time Ago
TTITLE5=Sack Full Of Stones
TTITLE6=Women, Sensous Women
TTITLE7=New Start
TTITLE8=Fool Hearted Women
TTITLE9=I Still Love You
EXTD=
EXTT0=
EXTT1=
EXTT2=
EXTT3=
EXTT4=
EXTT5=
EXTT6=
EXTT7=
EXTT8=
EXTT9=
PLAYORDER=
